# Blender v2.77 (sub 0) OBJ File: ''
# www.blender.org
mtllib table.mtl
o Table
v 0.322805 0.720276 -0.700705
v 0.296591 0.720276 -0.689849
v 0.285734 0.720276 -0.663636
v 0.296592 0.720276 -0.637422
v 0.322805 0.720276 -0.626563
v 0.349018 0.720276 -0.637421
v 0.359876 0.720276 -0.663634
v 0.349018 0.720276 -0.689847
v 0.308662 0.030293 -0.697777
v 0.288662 0.030293 -0.677777
v 0.288662 0.030293 -0.649493
v 0.308662 0.030293 -0.629493
v 0.336947 0.030293 -0.629492
v 0.356947 0.030293 -0.649493
v 0.356947 0.030293 -0.677777
v 0.336946 0.030293 -0.697777
v 0.296591 0.030293 -0.689848
v 0.308663 0.720276 -0.697777
v 0.322804 0.030293 -0.700706
v 0.285733 0.030293 -0.663635
v 0.288663 0.720276 -0.677778
v 0.296591 0.030293 -0.637422
v 0.288663 0.720276 -0.649493
v 0.322804 0.030293 -0.626564
v 0.308663 0.720276 -0.629492
v 0.349018 0.030293 -0.637421
v 0.336947 0.720276 -0.629492
v 0.359876 0.030293 -0.663635
v 0.356947 0.720276 -0.649491
v 0.349018 0.030293 -0.689848
v 0.356947 0.720276 -0.677776
v 0.336947 0.720276 -0.697776
v 0.306119 0.028655 -0.703918
v 0.288125 0.025982 -0.698315
v 0.322804 0.028655 -0.707374
v 0.282522 0.028655 -0.680322
v 0.273761 0.025982 -0.663636
v 0.282522 0.028655 -0.646951
v 0.288125 0.025982 -0.628957
v 0.306119 0.028655 -0.623354
v 0.322804 0.025982 -0.614592
v 0.339490 0.028655 -0.623353
v 0.357483 0.025982 -0.628957
v 0.363087 0.028655 -0.646950
v 0.371848 0.025982 -0.663635
v 0.363087 0.028655 -0.680321
v 0.357483 0.025982 -0.698315
v 0.339490 0.028655 -0.703918
v 0.302791 0.023136 -0.711952
v 0.284161 0.018037 -0.702280
v 0.322804 0.023136 -0.716097
v 0.274488 0.023136 -0.683650
v 0.268154 0.018037 -0.663636
v 0.274488 0.023136 -0.643623
v 0.284161 0.018037 -0.624993
v 0.302791 0.023136 -0.615319
v 0.322804 0.018037 -0.608986
v 0.342818 0.023136 -0.615319
v 0.361448 0.018037 -0.624992
v 0.371121 0.023136 -0.643622
v 0.377454 0.018037 -0.663635
v 0.371121 0.023136 -0.683649
v 0.361448 0.018037 -0.702279
v 0.342818 0.023136 -0.711952
v 0.301956 -0.000011 -0.713969
v 0.284161 -0.000011 -0.702280
v 0.322804 -0.000011 -0.718286
v 0.272472 -0.000011 -0.684485
v 0.268154 -0.000011 -0.663637
v 0.272472 -0.000011 -0.642789
v 0.284161 -0.000011 -0.624993
v 0.301956 -0.000011 -0.613304
v 0.322804 -0.000011 -0.608986
v 0.343653 -0.000011 -0.613304
v 0.361448 -0.000011 -0.624993
v 0.373136 -0.000011 -0.642788
v 0.377454 -0.000011 -0.663636
v 0.373136 -0.000011 -0.684484
v 0.361448 -0.000011 -0.702280
v 0.343653 -0.000011 -0.713968
v 0.301956 0.018037 -0.713968
v 0.285708 0.023136 -0.700732
v 0.322804 0.018037 -0.718286
v 0.272472 0.018037 -0.684485
v 0.270343 0.023136 -0.663636
v 0.272472 0.018037 -0.642789
v 0.285709 0.023136 -0.626540
v 0.301956 0.018037 -0.613304
v 0.322804 0.023136 -0.611175
v 0.343653 0.018037 -0.613303
v 0.359900 0.023136 -0.626540
v 0.373137 0.018037 -0.642787
v 0.375266 0.023136 -0.663635
v 0.373137 0.018037 -0.684484
v 0.359900 0.023136 -0.700731
v 0.343653 0.018037 -0.713968
v 0.304095 0.025982 -0.708805
v 0.291877 0.028655 -0.694563
v 0.322804 0.025982 -0.712679
v 0.277636 0.025982 -0.682346
v 0.279066 0.028655 -0.663636
v 0.277636 0.025982 -0.644927
v 0.291877 0.028655 -0.632708
v 0.304095 0.025982 -0.618467
v 0.322804 0.028655 -0.619898
v 0.341514 0.025982 -0.618467
v 0.353732 0.028655 -0.632708
v 0.367973 0.025982 -0.644926
v 0.366542 0.028655 -0.663635
v 0.367973 0.025982 -0.682345
v 0.353732 0.028655 -0.694563
v 0.341514 0.025982 -0.708804
v -0.357195 0.549990 -0.676760
v -0.357195 0.561357 -0.670197
v -0.357195 0.561357 -0.657072
v -0.357195 0.549990 -0.650510
v -0.357195 0.538624 -0.657072
v -0.357195 0.538624 -0.670197
v 0.322805 0.549990 -0.676761
v 0.322805 0.561357 -0.670198
v 0.322805 0.561357 -0.657073
v 0.322805 0.549990 -0.650511
v 0.322805 0.538624 -0.657073
v 0.322805 0.538624 -0.670198
v -0.357196 0.629991 -0.676760
v -0.357196 0.641357 -0.670197
v -0.357196 0.641357 -0.657072
v -0.357196 0.629991 -0.650510
v -0.357195 0.618624 -0.657072
v -0.357196 0.618624 -0.670197
v 0.322805 0.629990 -0.676761
v 0.322805 0.641357 -0.670198
v 0.322805 0.641357 -0.657073
v 0.322805 0.629990 -0.650511
v 0.322805 0.618624 -0.657073
v 0.322805 0.618624 -0.670198
v -0.357195 0.556486 -0.674885
v -0.357195 0.562981 -0.663635
v -0.357195 0.556486 -0.652385
v -0.357195 0.543495 -0.652385
v -0.357195 0.537000 -0.663635
v -0.357195 0.543495 -0.674885
v -0.357196 0.636486 -0.674885
v -0.357196 0.642981 -0.663635
v -0.357196 0.636486 -0.652385
v -0.357196 0.623495 -0.652385
v -0.357196 0.617000 -0.663635
v -0.357196 0.623495 -0.674885
v 0.322805 0.556486 -0.674886
v 0.322805 0.562981 -0.663636
v 0.322805 0.556486 -0.652386
v 0.322805 0.543495 -0.652386
v 0.322805 0.537000 -0.663636
v 0.322805 0.543495 -0.674886
v 0.322805 0.636486 -0.674886
v 0.322805 0.642981 -0.663636
v 0.322805 0.636486 -0.652386
v 0.322805 0.623495 -0.652386
v 0.322805 0.617000 -0.663636
v 0.322805 0.623495 -0.674886
v -0.357196 0.720276 0.726363
v -0.357196 0.720276 0.356363
v -0.387196 0.720276 0.356365
v -0.387196 0.720276 0.756363
v -0.357196 -0.000010 0.726363
v -0.357196 -0.000010 0.356363
v -0.387196 -0.000010 0.356363
v -0.387196 -0.000010 0.756363
v -0.357196 0.720276 -0.338447
v -0.357196 0.720276 -0.738445
v -0.387196 0.720276 -0.738444
v -0.387196 0.720276 -0.338445
v -0.357195 -0.000010 -0.338447
v -0.357196 -0.000010 -0.738445
v -0.387196 -0.000010 -0.738445
v -0.387196 -0.000010 -0.338447
v 0.181793 0.720276 0.756362
v 0.181793 0.720276 0.726362
v -0.357196 0.720276 0.726363
v -0.387195 0.720276 0.756363
v 0.181793 -0.000010 0.756362
v 0.181793 -0.000010 0.726362
v -0.357196 -0.000010 0.726362
v -0.387196 -0.000010 0.756363
v 0.204254 0.723276 0.764686
v -0.403299 0.723277 0.764686
v -0.403298 0.723277 -0.764669
v 0.403280 0.723276 -0.764669
v 0.204254 0.752419 0.764687
v -0.403299 0.752419 0.764687
v -0.403298 0.752419 -0.764669
v 0.403280 0.752419 -0.764669
v 0.397153 0.723276 -0.553706
v 0.376622 0.723276 -0.361564
v 0.344470 0.723276 -0.183990
v 0.306345 0.723276 -0.012880
v 0.267892 0.723276 0.159866
v 0.234759 0.723276 0.342350
v 0.212591 0.723276 0.542674
v 0.397153 0.752419 -0.553706
v 0.376622 0.752419 -0.361564
v 0.344470 0.752419 -0.183989
v 0.306345 0.752419 -0.012880
v 0.267892 0.752419 0.159867
v 0.234759 0.752419 0.342350
v 0.212591 0.752419 0.542675
v 0.401296 0.752419 -0.657771
v 0.388693 0.752419 -0.455308
v 0.361646 0.752419 -0.271462
v 0.325801 0.752419 -0.098132
v 0.286807 0.752419 0.072782
v 0.250308 0.752419 0.249385
v 0.221951 0.752419 0.439776
v 0.207384 0.752419 0.652059
v 0.401296 0.723276 -0.657771
v 0.388693 0.723276 -0.455308
v 0.361646 0.723276 -0.271463
v 0.325801 0.723276 -0.098133
v 0.286807 0.723276 0.072782
v 0.250308 0.723276 0.249384
v 0.221951 0.723276 0.439776
v 0.207384 0.723276 0.652059
v 0.202309 0.720276 0.762687
v -0.401299 0.720277 0.762687
v -0.401298 0.720277 -0.762669
v 0.401243 0.720276 -0.762669
v 0.202309 0.755419 0.762687
v -0.401299 0.755419 0.762687
v -0.401298 0.755419 -0.762669
v 0.401243 0.755419 -0.762669
v 0.395156 0.720276 -0.553832
v 0.374643 0.720276 -0.361856
v 0.342512 0.720276 -0.184395
v 0.304395 0.720276 -0.013325
v 0.265933 0.720276 0.159461
v 0.232780 0.720276 0.342054
v 0.210595 0.720276 0.542536
v 0.395156 0.755419 -0.553831
v 0.374643 0.755419 -0.361855
v 0.342512 0.755419 -0.184394
v 0.304395 0.755419 -0.013324
v 0.265933 0.755419 0.159462
v 0.232780 0.755419 0.342055
v 0.210596 0.755419 0.542537
v 0.399296 0.755419 -0.657829
v 0.386704 0.755419 -0.455521
v 0.359678 0.755419 -0.271819
v 0.323849 0.755419 -0.098567
v 0.284854 0.755419 0.072347
v 0.248340 0.755419 0.249027
v 0.219963 0.755419 0.439555
v 0.205386 0.755419 0.651984
v 0.399296 0.720276 -0.657830
v 0.386704 0.720276 -0.455522
v 0.359678 0.720276 -0.271819
v 0.323849 0.720276 -0.098567
v 0.284854 0.720276 0.072347
v 0.248340 0.720276 0.249026
v 0.219963 0.720276 0.439555
v 0.205386 0.720276 0.651983
vn -0.5490 0.0000 -0.8358
vn -0.2028 0.0000 -0.9792
vn -0.9792 0.0000 -0.2028
vn -0.8358 0.0000 -0.5490
vn -0.8358 0.0000 0.5490
vn -0.9792 0.0000 0.2028
vn -0.2028 -0.0000 0.9792
vn -0.5490 0.0000 0.8358
vn 0.5490 -0.0000 0.8358
vn 0.2028 -0.0000 0.9792
vn 0.9792 -0.0000 0.2028
vn 0.8358 -0.0000 0.5490
vn 0.8358 0.0000 -0.5490
vn 0.9792 -0.0000 -0.2028
vn 0.2028 0.0000 -0.9792
vn 0.5490 0.0000 -0.8358
vn -0.1336 0.9699 -0.2034
vn -0.0493 0.9699 -0.2383
vn -0.2383 0.9699 -0.0493
vn -0.2034 0.9699 -0.1336
vn -0.2034 0.9699 0.1336
vn -0.2383 0.9699 0.0494
vn -0.0493 0.9699 0.2383
vn -0.1336 0.9699 0.2034
vn 0.1336 0.9699 0.2034
vn 0.0494 0.9699 0.2383
vn 0.0493 0.9699 0.2383
vn 0.2383 0.9699 0.0494
vn 0.2034 0.9699 0.1336
vn 0.2034 0.9699 -0.1336
vn 0.2383 0.9699 -0.0493
vn 0.2383 0.9699 -0.0494
vn 0.0493 0.9699 -0.2383
vn 0.1336 0.9699 -0.2034
vn -0.3556 0.7618 -0.5414
vn -0.1314 0.7618 -0.6343
vn -0.6343 0.7618 -0.1314
vn -0.5414 0.7619 -0.3556
vn -0.5414 0.7618 -0.3556
vn -0.5414 0.7618 0.3556
vn -0.6343 0.7618 0.1314
vn -0.1314 0.7618 0.6343
vn -0.3556 0.7618 0.5414
vn 0.3556 0.7619 0.5414
vn 0.3556 0.7618 0.5414
vn 0.1314 0.7618 0.6343
vn 0.6343 0.7618 0.1314
vn 0.5414 0.7618 0.3556
vn 0.5414 0.7618 -0.3556
vn 0.6343 0.7618 -0.1314
vn 0.1314 0.7618 -0.6343
vn 0.3556 0.7618 -0.5414
vn -0.5061 0.3875 -0.7705
vn -0.1869 0.3875 -0.9027
vn -0.1870 0.3875 -0.9027
vn -0.9027 0.3875 -0.1870
vn -0.7705 0.3875 -0.5061
vn -0.7705 0.3874 0.5061
vn -0.7705 0.3875 0.5061
vn -0.9027 0.3875 0.1870
vn -0.1869 0.3875 0.9027
vn -0.1870 0.3875 0.9027
vn -0.5061 0.3875 0.7705
vn 0.5061 0.3875 0.7705
vn 0.1869 0.3875 0.9027
vn 0.9027 0.3875 0.1870
vn 0.7705 0.3875 0.5061
vn 0.7705 0.3875 -0.5061
vn 0.9027 0.3875 -0.1870
vn 0.1870 0.3875 -0.9027
vn 0.5061 0.3875 -0.7705
vn -0.2512 0.8892 -0.3824
vn -0.0928 0.8892 -0.4480
vn -0.4481 0.8892 -0.0928
vn -0.4480 0.8892 -0.0928
vn -0.3824 0.8892 -0.2512
vn -0.3824 0.8892 0.2512
vn -0.4480 0.8892 0.0928
vn -0.0928 0.8892 0.4481
vn -0.2512 0.8892 0.3824
vn 0.2512 0.8892 0.3824
vn 0.0928 0.8892 0.4481
vn 0.4480 0.8892 0.0928
vn 0.3824 0.8892 0.2512
vn 0.3824 0.8892 -0.2512
vn 0.4480 0.8892 -0.0928
vn 0.0928 0.8892 -0.4480
vn 0.2512 0.8892 -0.3824
vn 0.0000 1.0000 0.0000
vn -0.0000 -1.0000 0.0000
vn -0.0000 0.6934 -0.7206
vn -0.0000 0.2774 -0.9608
vn -0.0000 0.2773 -0.9608
vn 0.0000 0.9707 0.2402
vn -0.0000 0.9707 -0.2402
vn 0.0000 0.2773 0.9608
vn 0.0000 0.2774 0.9608
vn 0.0000 0.6934 0.7206
vn 0.0000 -0.6934 0.7206
vn 0.0000 -0.2773 0.9608
vn -0.0000 -0.9707 -0.2402
vn 0.0000 -0.9707 0.2402
vn -0.0000 -0.2773 -0.9608
vn -0.0000 -0.2774 -0.9608
vn -0.0000 -0.6934 -0.7206
vn 1.0000 -0.0000 0.0000
vn -0.0000 0.0000 -1.0000
vn -1.0000 0.0000 -0.0000
vn -0.0000 -0.0000 1.0000
vn 0.9992 -0.0000 0.0398
vn 0.9998 0.0000 0.0186
vn 0.9918 -0.0000 0.1277
vn 0.9963 -0.0000 0.0857
vn 0.9813 -0.0000 0.1927
vn 0.9865 -0.0000 0.1640
vn 0.9749 -0.0000 0.2225
vn 0.9772 -0.0000 0.2125
vn 0.9772 0.0000 0.2122
vn 0.9750 -0.0000 0.2224
vn 0.9863 -0.0000 0.1650
vn 0.9812 -0.0000 0.1928
vn 0.9959 0.0000 0.0906
vn 0.9915 -0.0000 0.1303
vn 0.9996 -0.0000 0.0278
vn 0.9989 -0.0000 0.0475
vn -0.0000 -0.5546 0.8321
vn 0.0000 0.5546 0.8321
vn -0.8320 -0.5547 -0.0000
vn -0.8321 -0.5547 -0.0000
vn -0.8321 0.5547 -0.0000
vn -0.0000 -0.5547 -0.8321
vn -0.0000 -0.5547 -0.8320
vn 0.0000 0.5547 -0.8320
vn 0.8314 -0.5547 0.0331
vn 0.8314 0.5547 0.0331
vn 0.8319 0.5547 0.0154
vn 0.8319 -0.5547 0.0154
vn 0.8252 -0.5547 0.1063
vn 0.8252 0.5547 0.1063
vn 0.8290 0.5547 0.0713
vn 0.8290 -0.5547 0.0713
vn 0.8165 -0.5547 0.1603
vn 0.8165 0.5547 0.1603
vn 0.8208 0.5547 0.1364
vn 0.8208 -0.5547 0.1364
vn 0.8112 -0.5547 0.1851
vn 0.8112 0.5547 0.1851
vn 0.8130 0.5547 0.1768
vn 0.8131 0.5547 0.1768
vn 0.8131 -0.5547 0.1768
vn 0.8130 -0.5547 0.1768
vn 0.8131 -0.5547 0.1766
vn 0.8131 0.5547 0.1766
vn 0.8112 0.5547 0.1850
vn 0.8112 -0.5547 0.1850
vn 0.8207 -0.5547 0.1373
vn 0.8207 0.5547 0.1373
vn 0.8206 0.5547 0.1373
vn 0.8164 0.5547 0.1604
vn 0.8165 -0.5547 0.1604
vn 0.8164 -0.5547 0.1604
vn 0.8286 -0.5547 0.0754
vn 0.8286 0.5547 0.0754
vn 0.8249 0.5547 0.1084
vn 0.8250 -0.5547 0.1084
vn 0.8317 -0.5547 0.0231
vn 0.8317 0.5547 0.0231
vn 0.8311 0.5547 0.0396
vn 0.8311 -0.5547 0.0396
usemtl MetalChrome
s off
f 2//1 18//1 9//1
f 2//1 9//1 17//1
f 1//2 19//2 9//2
f 1//2 9//2 18//2
f 3//3 21//3 10//3
f 3//3 10//3 20//3
f 2//4 17//4 10//4
f 2//4 10//4 21//4
f 4//5 23//5 11//5
f 4//5 11//5 22//5
f 3//6 20//6 11//6
f 3//6 11//6 23//6
f 5//7 25//7 12//7
f 5//7 12//7 24//7
f 4//8 22//8 12//8
f 4//8 12//8 25//8
f 6//9 27//9 13//9
f 6//9 13//9 26//9
f 5//10 24//10 13//10
f 5//10 13//10 27//10
f 7//11 29//11 14//11
f 7//11 14//11 28//11
f 6//12 26//12 14//12
f 6//12 14//12 29//12
f 8//13 31//13 15//13
f 8//13 15//13 30//13
f 7//14 28//14 15//14
f 7//14 15//14 31//14
f 1//15 32//15 16//15
f 1//15 16//15 19//15
f 8//16 30//16 16//16
f 8//16 16//16 32//16
f 33//17 98//17 17//17
f 17//17 9//17 33//17
f 35//18 33//18 9//18
f 9//18 19//18 35//18
f 36//19 101//19 20//19
f 20//19 10//19 36//19
f 98//20 36//20 10//20
f 10//20 17//20 98//20
f 38//21 103//21 22//21
f 22//21 11//21 38//21
f 101//22 38//22 11//22
f 11//22 20//22 101//22
f 40//23 105//23 24//23
f 24//23 12//23 40//23
f 103//24 40//24 12//24
f 12//24 22//24 103//24
f 42//25 107//25 26//25
f 26//25 13//25 42//25
f 105//26 42//26 13//26
f 13//27 24//27 105//27
f 44//28 109//28 28//28
f 28//28 14//28 44//28
f 107//29 44//29 14//29
f 14//29 26//29 107//29
f 46//30 111//30 30//30
f 30//30 15//30 46//30
f 109//31 46//31 15//31
f 15//32 28//32 109//32
f 48//33 35//33 19//33
f 19//33 16//33 48//33
f 111//34 48//34 16//34
f 16//34 30//34 111//34
f 49//35 82//35 34//35
f 34//35 97//35 49//35
f 51//36 49//36 97//36
f 97//36 99//36 51//36
f 52//37 85//37 37//37
f 37//37 100//37 52//37
f 82//38 52//38 100//38
f 100//39 34//39 82//39
f 54//40 87//40 39//40
f 39//40 102//40 54//40
f 85//41 54//41 102//41
f 102//41 37//41 85//41
f 56//42 89//42 41//42
f 41//42 104//42 56//42
f 87//43 56//43 104//43
f 104//43 39//43 87//43
f 58//44 91//44 43//44
f 43//45 106//45 58//45
f 89//46 58//46 106//46
f 106//46 41//46 89//46
f 60//47 93//47 45//47
f 45//47 108//47 60//47
f 91//48 60//48 108//48
f 108//48 43//48 91//48
f 62//49 95//49 47//49
f 47//49 110//49 62//49
f 93//50 62//50 110//50
f 110//50 45//50 93//50
f 64//51 51//51 99//51
f 99//51 112//51 64//51
f 95//52 64//52 112//52
f 112//52 47//52 95//52
f 65//1 66//1 50//1
f 50//1 81//1 65//1
f 67//2 65//2 81//2
f 81//2 83//2 67//2
f 68//3 69//3 53//3
f 53//3 84//3 68//3
f 66//4 68//4 84//4
f 84//4 50//4 66//4
f 70//5 71//5 55//5
f 55//5 86//5 70//5
f 69//6 70//6 86//6
f 86//6 53//6 69//6
f 72//7 73//7 57//7
f 57//7 88//7 72//7
f 71//8 72//8 88//8
f 88//8 55//8 71//8
f 74//9 75//9 59//9
f 59//9 90//9 74//9
f 73//10 74//10 90//10
f 90//10 57//10 73//10
f 76//11 77//11 61//11
f 61//11 92//11 76//11
f 75//12 76//12 92//12
f 92//12 59//12 75//12
f 78//13 79//13 63//13
f 63//13 94//13 78//13
f 77//14 78//14 94//14
f 94//14 61//14 77//14
f 80//15 67//15 83//15
f 83//15 96//15 80//15
f 79//16 80//16 96//16
f 96//16 63//16 79//16
f 49//53 81//53 82//53
f 50//53 82//53 81//53
f 81//54 49//54 83//54
f 51//55 83//55 49//55
f 52//56 84//56 85//56
f 53//56 85//56 84//56
f 82//57 50//57 52//57
f 84//57 52//57 50//57
f 54//58 86//58 87//58
f 55//59 87//59 86//59
f 85//60 53//60 54//60
f 86//60 54//60 53//60
f 56//61 88//61 89//61
f 57//62 89//62 88//62
f 87//63 55//63 56//63
f 88//63 56//63 55//63
f 58//64 90//64 91//64
f 59//64 91//64 90//64
f 89//65 57//65 58//65
f 90//65 58//65 57//65
f 60//66 92//66 93//66
f 61//66 93//66 92//66
f 91//67 59//67 60//67
f 92//67 60//67 59//67
f 62//68 94//68 95//68
f 63//68 95//68 94//68
f 93//69 61//69 62//69
f 94//69 62//69 61//69
f 83//70 51//70 96//70
f 64//70 96//70 51//70
f 95//71 63//71 64//71
f 96//71 64//71 63//71
f 33//72 97//72 98//72
f 34//72 98//72 97//72
f 97//73 33//73 99//73
f 35//73 99//73 33//73
f 36//74 100//74 101//74
f 37//75 101//75 100//75
f 98//76 34//76 36//76
f 100//76 36//76 34//76
f 38//77 102//77 103//77
f 39//77 103//77 102//77
f 101//78 37//78 38//78
f 102//78 38//78 37//78
f 40//79 104//79 105//79
f 41//79 105//79 104//79
f 103//80 39//80 40//80
f 104//80 40//80 39//80
f 42//81 106//81 107//81
f 43//81 107//81 106//81
f 105//82 41//82 42//82
f 106//82 42//82 41//82
f 44//83 108//83 109//83
f 45//83 109//83 108//83
f 107//84 43//84 44//84
f 108//84 44//84 43//84
f 46//85 110//85 111//85
f 47//85 111//85 110//85
f 109//86 45//86 46//86
f 110//86 46//86 45//86
f 99//87 35//87 112//87
f 48//87 112//87 35//87
f 111//88 47//88 48//88
f 112//88 48//88 47//88
f 31//89 18//89 27//89
f 71//90 66//90 75//90
f 2//89 21//89 18//89
f 3//89 23//89 21//89
f 4//89 25//89 23//89
f 5//89 27//89 25//89
f 6//89 29//89 27//89
f 7//89 31//89 29//89
f 8//89 32//89 31//89
f 1//89 18//89 32//89
f 21//89 23//89 18//89
f 25//89 27//89 23//89
f 29//89 31//89 27//89
f 32//89 18//89 31//89
f 23//89 27//89 18//89
f 65//90 67//90 66//90
f 80//90 79//90 67//90
f 78//90 77//90 79//90
f 76//90 75//90 77//90
f 74//90 73//90 75//90
f 72//90 71//90 73//90
f 70//90 69//90 71//90
f 68//90 66//90 69//90
f 67//90 79//90 66//90
f 77//90 75//90 79//90
f 73//90 71//90 75//90
f 69//90 66//90 71//90
f 79//90 75//90 66//90
f 120//91 149//91 137//91
f 120//91 137//91 114//91
f 119//92 113//92 137//92
f 119//93 137//93 149//93
f 121//94 150//94 138//94
f 121//94 138//94 115//94
f 120//95 114//95 138//95
f 120//95 138//95 150//95
f 122//96 151//96 139//96
f 122//97 139//97 116//97
f 121//98 115//98 139//98
f 121//98 139//98 151//98
f 123//99 152//99 140//99
f 123//99 140//99 117//99
f 122//100 116//100 140//100
f 122//100 140//100 152//100
f 124//101 153//101 141//101
f 124//101 141//101 118//101
f 123//102 117//102 141//102
f 123//102 141//102 153//102
f 119//103 154//103 142//103
f 119//104 142//104 113//104
f 124//105 118//105 142//105
f 124//105 142//105 154//105
f 132//91 155//91 143//91
f 132//91 143//91 126//91
f 131//92 125//92 143//92
f 131//93 143//93 155//93
f 133//94 156//94 144//94
f 133//94 144//94 127//94
f 132//95 126//95 144//95
f 132//95 144//95 156//95
f 134//96 157//96 145//96
f 134//97 145//97 128//97
f 133//98 127//98 145//98
f 133//98 145//98 157//98
f 135//99 158//99 146//99
f 135//99 146//99 129//99
f 134//100 128//100 146//100
f 134//100 146//100 158//100
f 136//101 159//101 147//101
f 136//101 147//101 130//101
f 135//102 129//102 147//102
f 135//102 147//102 159//102
f 131//104 160//104 148//104
f 131//104 148//104 125//104
f 136//105 130//105 148//105
f 136//105 148//105 160//105
usemtl WHITE_PLASTIC
f 161//106 165//106 166//106
f 161//106 166//106 162//106
f 162//107 166//107 167//107
f 162//107 167//107 163//107
f 163//108 167//108 168//108
f 163//108 168//108 164//108
f 169//106 173//106 174//106
f 169//106 174//106 170//106
f 170//107 174//107 175//107
f 170//107 175//107 171//107
f 171//108 175//108 176//108
f 171//108 176//108 172//108
f 172//109 176//109 173//109
f 172//109 173//109 169//109
f 177//106 181//106 182//106
f 177//106 182//106 178//106
f 178//107 182//107 183//107
f 178//107 183//107 179//107
f 180//109 184//109 181//109
f 180//109 181//109 177//109
f 173//90 176//90 175//90
f 175//90 174//90 173//90
f 181//90 184//90 183//90
f 183//90 182//90 181//90
f 184//90 167//90 166//90
f 166//90 183//90 184//90
f 190//109 186//109 185//109
f 189//109 190//109 185//109
f 191//108 187//108 186//108
f 190//108 191//108 186//108
f 192//107 188//107 187//107
f 191//107 192//107 187//107
f 193//110 215//110 207//110
f 193//110 207//110 200//110
f 188//111 192//111 207//111
f 188//111 207//111 215//111
f 194//112 216//112 208//112
f 194//112 208//112 201//112
f 193//113 200//113 208//113
f 193//113 208//113 216//113
f 195//114 217//114 209//114
f 195//114 209//114 202//114
f 194//115 201//115 209//115
f 194//115 209//115 217//115
f 196//116 218//116 210//116
f 196//116 210//116 203//116
f 195//117 202//117 210//117
f 195//117 210//117 218//117
f 197//118 219//118 211//118
f 197//118 211//118 204//118
f 196//119 203//119 211//119
f 196//119 211//119 219//119
f 198//120 220//120 212//120
f 198//120 212//120 205//120
f 197//121 204//121 212//121
f 197//121 212//121 220//121
f 199//122 221//122 213//122
f 199//122 213//122 206//122
f 198//123 205//123 213//123
f 198//123 213//123 221//123
f 185//124 222//124 214//124
f 185//124 214//124 189//124
f 199//125 206//125 214//125
f 199//125 214//125 222//125
f 250//89 242//89 229//89
f 252//89 228//89 227//89
f 229//89 248//89 240//89
f 229//89 247//89 239//89
f 229//89 246//89 238//89
f 229//89 245//89 230//89
f 244//89 228//89 252//89
f 229//89 241//89 248//89
f 229//89 239//89 246//89
f 238//89 245//89 229//89
f 251//89 228//89 244//89
f 229//89 240//89 247//89
f 243//89 228//89 251//89
f 229//89 249//89 241//89
f 229//89 228//89 243//89
f 229//89 242//89 249//89
f 229//89 243//89 250//89
f 235//90 258//90 225//90
f 224//90 260//90 223//90
f 256//90 225//90 233//90
f 255//90 225//90 232//90
f 254//90 225//90 231//90
f 253//90 225//90 226//90
f 224//90 237//90 260//90
f 234//90 225//90 256//90
f 232//90 225//90 254//90
f 253//90 231//90 225//90
f 224//90 259//90 237//90
f 233//90 225//90 255//90
f 224//90 236//90 259//90
f 257//90 225//90 234//90
f 224//90 225//90 236//90
f 235//90 225//90 257//90
f 236//90 225//90 258//90
f 185//126 186//126 224//126
f 224//126 223//126 185//126
f 190//127 189//127 227//127
f 227//127 228//127 190//127
f 186//128 187//128 225//128
f 225//129 224//129 186//129
f 191//130 190//130 228//130
f 228//130 229//130 191//130
f 187//131 188//131 226//131
f 226//132 225//132 187//132
f 192//133 191//133 229//133
f 229//133 230//133 192//133
f 215//134 193//134 231//134
f 231//134 253//134 215//134
f 200//135 207//135 245//135
f 245//135 238//135 200//135
f 207//136 192//136 230//136
f 230//136 245//136 207//136
f 188//137 215//137 253//137
f 253//137 226//137 188//137
f 216//138 194//138 232//138
f 232//138 254//138 216//138
f 201//139 208//139 246//139
f 246//139 239//139 201//139
f 208//140 200//140 238//140
f 238//140 246//140 208//140
f 193//141 216//141 254//141
f 254//141 231//141 193//141
f 217//142 195//142 233//142
f 233//142 255//142 217//142
f 202//143 209//143 247//143
f 247//143 240//143 202//143
f 209//144 201//144 239//144
f 239//144 247//144 209//144
f 194//145 217//145 255//145
f 255//145 232//145 194//145
f 218//146 196//146 234//146
f 234//146 256//146 218//146
f 203//147 210//147 248//147
f 248//147 241//147 203//147
f 210//148 202//148 240//148
f 240//149 248//149 210//149
f 195//150 218//150 256//150
f 256//151 233//151 195//151
f 219//152 197//152 235//152
f 235//152 257//152 219//152
f 204//153 211//153 249//153
f 249//153 242//153 204//153
f 211//154 203//154 241//154
f 241//154 249//154 211//154
f 196//155 219//155 257//155
f 257//155 234//155 196//155
f 220//156 198//156 236//156
f 236//156 258//156 220//156
f 205//157 212//157 250//157
f 250//158 243//158 205//158
f 212//159 204//159 242//159
f 242//159 250//159 212//159
f 197//160 220//160 258//160
f 258//161 235//161 197//161
f 221//162 199//162 237//162
f 237//162 259//162 221//162
f 206//163 213//163 251//163
f 251//163 244//163 206//163
f 213//164 205//164 243//164
f 243//164 251//164 213//164
f 198//165 221//165 259//165
f 259//165 236//165 198//165
f 222//166 185//166 223//166
f 223//166 260//166 222//166
f 189//167 214//167 252//167
f 252//167 227//167 189//167
f 214//168 206//168 244//168
f 244//168 252//168 214//168
f 199//169 222//169 260//169
f 260//169 237//169 199//169
