####
#
# OBJ File Generated by Meshlab
#
####
# Object crayola_24_ct.obj
#
# Vertices: 8
# Faces: 12
#
####
mtllib ./crayola_24_ct.obj.mtl

vn -1.570796 1.570796 1.570796
v -0.011000 0.047500 0.035500 0.752941 0.752941 0.752941
vn -1.570796 1.570796 -1.570796
v -0.011000 0.047500 -0.035500 0.752941 0.752941 0.752941
vn -1.570796 -1.570796 -1.570796
v -0.011000 -0.047500 -0.035500 0.752941 0.752941 0.752941
vn -1.570796 -1.570796 1.570796
v -0.011000 -0.047500 0.035500 0.752941 0.752941 0.752941
vn 1.570796 1.570796 -1.570796
v 0.011000 0.047500 -0.035500 0.752941 0.752941 0.752941
vn 1.570796 -1.570796 -1.570796
v 0.011000 -0.047500 -0.035500 0.752941 0.752941 0.752941
vn 1.570796 1.570796 1.570796
v 0.011000 0.047500 0.035500 0.752941 0.752941 0.752941
vn 1.570796 -1.570796 1.570796
v 0.011000 -0.047500 0.035500 0.752941 0.752941 0.752941
# 8 vertices, 0 vertices normals


usemtl material_0
vt 0.684615 0.969909
vt 0.388577 0.969909
vt 0.388577 0.491033
f 1/1/1 2/2/2 3/3/3
vt 0.684615 0.491033
f 1/1/1 3/3/3 4/4/4
vt 0.044521 0.206651
vt 0.044521 0.447642
vt 0.532608 0.447642
f 2/5/2 5/6/5 6/7/6
vt 0.532608 0.206651
f 2/5/2 6/7/6 3/8/3
vt 0.352920 0.975912
vt 0.025878 0.975912
vt 0.025878 0.489004
f 5/9/5 7/10/7 8/11/8
vt 0.352920 0.489004
f 5/9/5 8/11/8 6/12/6
vt 0.050601 0.207096
vt 0.050601 0.447197
vt 0.529509 0.447197
f 7/13/7 1/14/1 4/15/4
vt 0.529509 0.207096
f 7/13/7 4/15/4 8/16/8
vt 0.968237 0.342549
vt 0.968237 0.981725
vt 0.797683 0.981725
f 4/17/4 3/18/3 6/19/6
vt 0.797683 0.342549
f 4/17/4 6/19/6 8/20/8
vt 0.499686 0.184646
vt 0.956290 0.184646
vt 0.956290 0.034956
f 7/21/7 5/22/5 2/23/2
vt 0.499686 0.034956
f 2/23/2 1/24/1 7/21/7
# 12 faces, 24 coords texture

# End of File
