####
#
# OBJ File Generated by Meshlab
#
####
# Object ticonderoga_12_pencils.obj
#
# Vertices: 14
# Faces: 26
#
####
mtllib ./ticonderoga_12_pencils.obj.mtl

vn -1.570796 -1.570796 1.570796
v -0.005000 -0.107500 0.047500 0.752941 0.752941 0.752941
vn -1.570796 -1.570796 -1.570796
v -0.005000 -0.107500 -0.047500 0.752941 0.752941 0.752941
vn 1.570796 -1.570796 -1.570796
v 0.005000 -0.107500 -0.047500 0.752941 0.752941 0.752941
vn 1.570796 -1.570796 1.570796
v 0.005000 -0.107500 0.047500 0.752941 0.752941 0.752941
vn -3.141593 1.570796 3.141593
v -0.005000 0.087500 0.047500 0.752941 0.752941 0.752941
vn -3.141593 1.570796 -3.141593
v -0.005000 0.087500 -0.047500 0.752941 0.752941 0.752941
vn 1.570796 1.570796 -1.570796
v 0.005000 0.087500 -0.047500 0.752941 0.752941 0.752941
vn 1.570796 1.570795 1.570796
v 0.005000 0.087500 0.047500 0.752941 0.752941 0.752941
vn 1.570797 3.141593 -1.570796
v -0.004000 0.087500 -0.047500 0.752941 0.752941 0.752941
vn 1.570796 0.000000 1.570797
v -0.004000 0.087500 0.047500 0.752941 0.752941 0.752941
vn -1.570797 1.570800 1.570797
v -0.005000 0.107500 0.047500 0.752941 0.752941 0.752941
vn 1.570797 1.570796 1.570796
v -0.004000 0.107500 0.047500 0.752941 0.752941 0.752941
vn 1.570796 1.570800 -1.570797
v -0.004000 0.107500 -0.047500 0.752941 0.752941 0.752941
vn -1.570796 1.570796 -1.570796
v -0.005000 0.107500 -0.047500 0.752941 0.752941 0.752941
# 14 vertices, 0 vertices normals


usemtl material_0
vt 0.241181 0.974492
vt 0.230080 0.974606
vt 0.200726 0.974908
f 6/1/6 9/2/9 7/3/7
vt 0.191087 0.228062
f 6/1/6 7/3/7 3/4/3
vt 0.223704 0.227727
f 6/1/6 3/4/3 2/5/2
vt 0.968102 0.923905
vt 0.628590 0.923905
vt 0.628590 0.405112
f 7/6/7 8/7/8 4/8/4
vt 0.968102 0.405112
f 7/6/7 4/8/4 3/9/3
vt 0.160874 0.972338
vt 0.140559 0.972701
vt 0.132876 0.972782
f 8/10/8 10/11/10 5/12/5
vt 0.126821 0.234988
f 8/10/8 5/12/5 1/13/1
vt 0.149393 0.234585
f 8/10/8 1/13/1 4/14/4
vt 0.082448 0.486969
vt 0.088305 0.982281
vt 0.048517 0.981312
f 1/15/1 2/16/2 3/17/3
vt 0.042660 0.485999
f 1/15/1 3/17/3 4/18/4
vt 0.057437 0.782837
vt 0.057437 0.573719
vt 0.068581 0.573719
f 8/19/8 7/20/7 9/21/9
vt 0.070634 0.573744
f 8/19/8 9/21/9 6/22/6
vt 0.070634 0.782862
f 8/19/8 6/22/6 5/23/5
vt 0.068581 0.782837
f 8/19/8 5/23/5 10/24/10
vt 0.282358 0.925345
vt 0.287620 0.406738
vt 0.584020 0.409753
f 6/25/6 2/26/2 1/27/1
vt 0.578758 0.928359
f 6/25/6 1/27/1 5/28/5
vt 0.578219 0.981550
f 6/25/6 5/28/5 11/29/11
vt 0.281818 0.978535
f 6/25/6 11/29/11 14/30/14
vt 0.070500 0.785479
vt 0.061656 0.785445
vt 0.061656 0.500384
f 11/31/11 12/32/12 13/33/13
vt 0.070501 0.500419
f 11/31/11 13/33/13 14/34/14
vt 0.073441 0.526612
vt 0.073441 0.683196
vt 0.065612 0.683196
f 10/35/10 12/36/12 11/37/11
vt 0.065612 0.526612
f 10/35/10 11/37/11 5/38/5
vt 0.951414 0.925268
vt 0.951414 0.968566
vt 0.633506 0.968566
f 9/39/9 13/40/13 12/41/12
vt 0.633506 0.925268
f 9/39/9 12/41/12 10/42/10
vt 0.070503 0.541258
vt 0.070503 0.771070
vt 0.059013 0.771070
f 6/43/6 14/44/14 13/45/13
vt 0.059013 0.541258
f 6/43/6 13/45/13 9/46/9
# 26 faces, 46 coords texture

# End of File