####
#
# OBJ File Generated by Meshlab
#
####
# Object up_glucose_bottle.obj
#
# Vertices: 128
# Faces: 248
#
####
mtllib ./up_glucose_bottle.obj.mtl

vn 0.000000 -2.945615 -3.126523
v 0.000000 0.045000 -0.029615 0.752941 0.752941 0.752941
vn -0.000000 2.945614 -3.126522
v 0.000000 0.070000 -0.029615 0.752941 0.752941 0.752941
vn 0.609803 2.944963 -3.066374
v 0.005778 0.070000 -0.029047 0.752941 0.752941 0.752941
vn 0.609803 -2.944958 -3.066374
v 0.005778 0.045000 -0.029047 0.752941 0.752941 0.752941
vn 1.196773 2.945215 -2.888337
v 0.011334 0.070000 -0.027361 0.752941 0.752941 0.752941
vn 1.196773 -2.945215 -2.888337
v 0.011334 0.045000 -0.027361 0.752941 0.752941 0.752941
vn 1.737113 2.945398 -2.599494
v 0.016453 0.070000 -0.024624 0.752941 0.752941 0.752941
vn 1.737114 -2.945398 -2.599494
v 0.016453 0.045000 -0.024624 0.752941 0.752941 0.752941
vn 2.210739 2.945188 -2.210739
v 0.020941 0.070000 -0.020941 0.752941 0.752941 0.752941
vn 2.210739 -2.945188 -2.210739
v 0.020941 0.045000 -0.020941 0.752941 0.752941 0.752941
vn 2.599494 2.945398 -1.737114
v 0.024624 0.070000 -0.016453 0.752941 0.752941 0.752941
vn 2.599494 -2.945398 -1.737113
v 0.024624 0.045000 -0.016453 0.752941 0.752941 0.752941
vn 2.888337 2.945216 -1.196772
v 0.027361 0.070000 -0.011334 0.752941 0.752941 0.752941
vn 2.888337 -2.945215 -1.196773
v 0.027361 0.045000 -0.011334 0.752941 0.752941 0.752941
vn 3.066374 2.944958 -0.609803
v 0.029047 0.070000 -0.005778 0.752941 0.752941 0.752941
vn 3.066374 -2.944958 -0.609803
v 0.029047 0.045000 -0.005778 0.752941 0.752941 0.752941
vn 3.126523 2.945614 -0.000000
v 0.029615 0.070000 0.000000 0.752941 0.752941 0.752941
vn 3.126523 -2.945614 0.000000
v 0.029615 0.045000 0.000000 0.752941 0.752941 0.752941
vn 3.066374 2.944958 0.609803
v 0.029047 0.070000 0.005778 0.752941 0.752941 0.752941
vn 3.066374 -2.944958 0.609803
v 0.029047 0.045000 0.005778 0.752941 0.752941 0.752941
vn 2.888337 2.945215 1.196773
v 0.027361 0.070000 0.011334 0.752941 0.752941 0.752941
vn 2.888337 -2.945215 1.196773
v 0.027361 0.045000 0.011334 0.752941 0.752941 0.752941
vn 2.599494 2.945398 1.737113
v 0.024624 0.070000 0.016453 0.752941 0.752941 0.752941
vn 2.599494 -2.945398 1.737114
v 0.024624 0.045000 0.016453 0.752941 0.752941 0.752941
vn 2.210739 2.945188 2.210739
v 0.020941 0.070000 0.020941 0.752941 0.752941 0.752941
vn 2.210739 -2.945188 2.210739
v 0.020941 0.045000 0.020941 0.752941 0.752941 0.752941
vn 1.737114 2.945398 2.599494
v 0.016453 0.070000 0.024624 0.752941 0.752941 0.752941
vn 1.737113 -2.945398 2.599494
v 0.016453 0.045000 0.024624 0.752941 0.752941 0.752941
vn 1.196772 2.945215 2.888337
v 0.011334 0.070000 0.027361 0.752941 0.752941 0.752941
vn 1.196773 -2.945215 2.888337
v 0.011334 0.045000 0.027361 0.752941 0.752941 0.752941
vn 0.609803 2.944958 3.066374
v 0.005778 0.070000 0.029047 0.752941 0.752941 0.752941
vn 0.609803 -2.944958 3.066374
v 0.005778 0.045000 0.029047 0.752941 0.752941 0.752941
vn 0.000000 2.945614 3.126523
v 0.000000 0.070000 0.029615 0.752941 0.752941 0.752941
vn -0.000000 -2.945614 3.126523
v 0.000000 0.045000 0.029615 0.752941 0.752941 0.752941
vn -0.609803 2.944958 3.066374
v -0.005778 0.070000 0.029047 0.752941 0.752941 0.752941
vn -0.609803 -2.944958 3.066374
v -0.005778 0.045000 0.029047 0.752941 0.752941 0.752941
vn -1.196773 2.945216 2.888337
v -0.011334 0.070000 0.027361 0.752941 0.752941 0.752941
vn -1.196773 -2.945215 2.888337
v -0.011334 0.045000 0.027361 0.752941 0.752941 0.752941
vn -1.737113 2.945398 2.599494
v -0.016453 0.070000 0.024624 0.752941 0.752941 0.752941
vn -1.737114 -2.945398 2.599494
v -0.016453 0.045000 0.024624 0.752941 0.752941 0.752941
vn -2.210739 2.945188 2.210739
v -0.020941 0.070000 0.020941 0.752941 0.752941 0.752941
vn -2.210739 -2.945188 2.210739
v -0.020941 0.045000 0.020941 0.752941 0.752941 0.752941
vn -2.599494 2.945398 1.737114
v -0.024624 0.070000 0.016453 0.752941 0.752941 0.752941
vn -2.599494 -2.945398 1.737113
v -0.024624 0.045000 0.016453 0.752941 0.752941 0.752941
vn -2.888337 2.945215 1.196772
v -0.027361 0.070000 0.011334 0.752941 0.752941 0.752941
vn -2.888337 -2.945215 1.196773
v -0.027361 0.045000 0.011334 0.752941 0.752941 0.752941
vn -3.066374 2.944958 0.609803
v -0.029047 0.070000 0.005778 0.752941 0.752941 0.752941
vn -3.066374 -2.944958 0.609803
v -0.029047 0.045000 0.005778 0.752941 0.752941 0.752941
vn -3.126523 2.945614 0.000000
v -0.029615 0.070000 0.000000 0.752941 0.752941 0.752941
vn -3.126523 -2.945614 -0.000000
v -0.029615 0.045000 0.000000 0.752941 0.752941 0.752941
vn -3.066374 2.944958 -0.609803
v -0.029047 0.070000 -0.005778 0.752941 0.752941 0.752941
vn -3.066374 -2.944958 -0.609803
v -0.029047 0.045000 -0.005778 0.752941 0.752941 0.752941
vn -2.888337 2.945216 -1.196773
v -0.027361 0.070000 -0.011334 0.752941 0.752941 0.752941
vn -2.888337 -2.945215 -1.196773
v -0.027361 0.045000 -0.011334 0.752941 0.752941 0.752941
vn -2.599494 2.945398 -1.737113
v -0.024624 0.070000 -0.016453 0.752941 0.752941 0.752941
vn -2.599494 -2.945398 -1.737114
v -0.024624 0.045000 -0.016453 0.752941 0.752941 0.752941
vn -2.210739 2.945188 -2.210739
v -0.020941 0.070000 -0.020941 0.752941 0.752941 0.752941
vn -2.210739 -2.945188 -2.210739
v -0.020941 0.045000 -0.020941 0.752941 0.752941 0.752941
vn -1.737114 2.945398 -2.599494
v -0.016453 0.070000 -0.024624 0.752941 0.752941 0.752941
vn -1.737113 -2.945398 -2.599494
v -0.016453 0.045000 -0.024624 0.752941 0.752941 0.752941
vn -1.196772 2.945215 -2.888337
v -0.011334 0.070000 -0.027361 0.752941 0.752941 0.752941
vn -1.196773 -2.945215 -2.888337
v -0.011334 0.045000 -0.027361 0.752941 0.752941 0.752941
vn -0.609803 2.944958 -3.066374
v -0.005778 0.070000 -0.029047 0.752941 0.752941 0.752941
vn -0.609803 -2.944958 -3.066374
v -0.005778 0.045000 -0.029047 0.752941 0.752941 0.752941
vn 0.000000 -2.945396 -3.126488
v 0.000000 -0.070000 -0.035000 0.752941 0.752941 0.752941
vn -0.000000 2.945388 -3.126489
v 0.000000 0.045000 -0.035000 0.752941 0.752941 0.752941
vn 0.609877 2.945140 -3.066389
v 0.006828 0.045000 -0.034328 0.752941 0.752941 0.752941
vn 0.609877 -2.945139 -3.066388
v 0.006828 -0.070000 -0.034328 0.752941 0.752941 0.752941
vn 1.196435 2.945316 -2.888494
v 0.013394 0.045000 -0.032336 0.752941 0.752941 0.752941
vn 1.196436 -2.945317 -2.888494
v 0.013394 -0.070000 -0.032336 0.752941 0.752941 0.752941
vn 1.736930 2.945187 -2.599579
v 0.019445 0.045000 -0.029102 0.752941 0.752941 0.752941
vn 1.736929 -2.945187 -2.599578
v 0.019445 -0.070000 -0.029102 0.752941 0.752941 0.752941
vn 2.210748 2.945270 -2.210748
v 0.024749 0.045000 -0.024749 0.752941 0.752941 0.752941
vn 2.210748 -2.945270 -2.210748
v 0.024749 -0.070000 -0.024749 0.752941 0.752941 0.752941
vn 2.599578 2.945188 -1.736929
v 0.029102 0.045000 -0.019445 0.752941 0.752941 0.752941
vn 2.599579 -2.945188 -1.736930
v 0.029102 -0.070000 -0.019445 0.752941 0.752941 0.752941
vn 2.888494 2.945316 -1.196436
v 0.032336 0.045000 -0.013394 0.752941 0.752941 0.752941
vn 2.888494 -2.945316 -1.196435
v 0.032336 -0.070000 -0.013394 0.752941 0.752941 0.752941
vn 3.066388 2.945140 -0.609877
v 0.034328 0.045000 -0.006828 0.752941 0.752941 0.752941
vn 3.066389 -2.945140 -0.609877
v 0.034328 -0.070000 -0.006828 0.752941 0.752941 0.752941
vn 3.126488 2.945388 -0.000000
v 0.035000 0.045000 0.000000 0.752941 0.752941 0.752941
vn 3.126488 -2.945388 0.000000
v 0.035000 -0.070000 0.000000 0.752941 0.752941 0.752941
vn 3.066389 2.945140 0.609877
v 0.034328 0.045000 0.006828 0.752941 0.752941 0.752941
vn 3.066388 -2.945139 0.609877
v 0.034328 -0.070000 0.006828 0.752941 0.752941 0.752941
vn 2.888494 2.945316 1.196435
v 0.032336 0.045000 0.013394 0.752941 0.752941 0.752941
vn 2.888494 -2.945316 1.196436
v 0.032336 -0.070000 0.013394 0.752941 0.752941 0.752941
vn 2.599579 2.945188 1.736930
v 0.029102 0.045000 0.019445 0.752941 0.752941 0.752941
vn 2.599578 -2.945188 1.736929
v 0.029102 -0.070000 0.019445 0.752941 0.752941 0.752941
vn 2.210748 2.945270 2.210748
v 0.024749 0.045000 0.024749 0.752941 0.752941 0.752941
vn 2.210748 -2.945270 2.210748
v 0.024749 -0.070000 0.024749 0.752941 0.752941 0.752941
vn 1.736929 2.945188 2.599578
v 0.019445 0.045000 0.029102 0.752941 0.752941 0.752941
vn 1.736930 -2.945188 2.599579
v 0.019445 -0.070000 0.029102 0.752941 0.752941 0.752941
vn 1.196436 2.945316 2.888494
v 0.013394 0.045000 0.032336 0.752941 0.752941 0.752941
vn 1.196435 -2.945316 2.888494
v 0.013394 -0.070000 0.032336 0.752941 0.752941 0.752941
vn 0.609877 2.945140 3.066388
v 0.006828 0.045000 0.034328 0.752941 0.752941 0.752941
vn 0.609877 -2.945140 3.066389
v 0.006828 -0.070000 0.034328 0.752941 0.752941 0.752941
vn 0.000000 2.945387 3.126488
v 0.000000 0.045000 0.035000 0.752941 0.752941 0.752941
vn -0.000000 -2.945388 3.126488
v 0.000000 -0.070000 0.035000 0.752941 0.752941 0.752941
vn -0.609877 2.945140 3.066389
v -0.006828 0.045000 0.034328 0.752941 0.752941 0.752941
vn -0.609877 -2.945140 3.066388
v -0.006828 -0.070000 0.034328 0.752941 0.752941 0.752941
vn -1.196435 2.945316 2.888494
v -0.013394 0.045000 0.032336 0.752941 0.752941 0.752941
vn -1.196436 -2.945316 2.888494
v -0.013394 -0.070000 0.032336 0.752941 0.752941 0.752941
vn -1.736930 2.945188 2.599579
v -0.019445 0.045000 0.029102 0.752941 0.752941 0.752941
vn -1.736929 -2.945188 2.599578
v -0.019445 -0.070000 0.029102 0.752941 0.752941 0.752941
vn -2.210748 2.945270 2.210748
v -0.024749 0.045000 0.024749 0.752941 0.752941 0.752941
vn -2.210748 -2.945270 2.210748
v -0.024749 -0.070000 0.024749 0.752941 0.752941 0.752941
vn -2.599578 2.945188 1.736929
v -0.029102 0.045000 0.019445 0.752941 0.752941 0.752941
vn -2.599579 -2.945188 1.736930
v -0.029102 -0.070000 0.019445 0.752941 0.752941 0.752941
vn -2.888494 2.945316 1.196436
v -0.032336 0.045000 0.013394 0.752941 0.752941 0.752941
vn -2.888494 -2.945316 1.196435
v -0.032336 -0.070000 0.013394 0.752941 0.752941 0.752941
vn -3.066388 2.945139 0.609877
v -0.034328 0.045000 0.006828 0.752941 0.752941 0.752941
vn -3.066389 -2.945139 0.609877
v -0.034328 -0.070000 0.006828 0.752941 0.752941 0.752941
vn -3.126488 2.945388 0.000000
v -0.035000 0.045000 0.000000 0.752941 0.752941 0.752941
vn -3.126488 -2.945388 -0.000000
v -0.035000 -0.070000 -0.000000 0.752941 0.752941 0.752941
vn -3.066389 2.945140 -0.609877
v -0.034328 0.045000 -0.006828 0.752941 0.752941 0.752941
vn -3.066388 -2.945140 -0.609877
v -0.034328 -0.070000 -0.006828 0.752941 0.752941 0.752941
vn -2.888494 2.945316 -1.196435
v -0.032336 0.045000 -0.013394 0.752941 0.752941 0.752941
vn -2.888494 -2.945316 -1.196436
v -0.032336 -0.070000 -0.013394 0.752941 0.752941 0.752941
vn -2.599579 2.945188 -1.736930
v -0.029102 0.045000 -0.019445 0.752941 0.752941 0.752941
vn -2.599578 -2.945188 -1.736929
v -0.029102 -0.070000 -0.019445 0.752941 0.752941 0.752941
vn -2.210748 2.945270 -2.210748
v -0.024749 0.045000 -0.024749 0.752941 0.752941 0.752941
vn -2.210748 -2.945270 -2.210748
v -0.024749 -0.070000 -0.024749 0.752941 0.752941 0.752941
vn -1.736929 2.945188 -2.599578
v -0.019445 0.045000 -0.029102 0.752941 0.752941 0.752941
vn -1.736930 -2.945187 -2.599579
v -0.019445 -0.070000 -0.029102 0.752941 0.752941 0.752941
vn -1.196436 2.945316 -2.888494
v -0.013394 0.045000 -0.032336 0.752941 0.752941 0.752941
vn -1.196435 -2.945317 -2.888494
v -0.013394 -0.070000 -0.032336 0.752941 0.752941 0.752941
vn -0.609877 2.945139 -3.066388
v -0.006828 0.045000 -0.034328 0.752941 0.752941 0.752941
vn -0.609877 -2.945139 -3.066389
v -0.006828 -0.070000 -0.034328 0.752941 0.752941 0.752941
# 128 vertices, 0 vertices normals


usemtl material_0
vt 0.166700 0.264700
vt 0.161900 0.210900
vt 0.179000 0.210900
f 1/1/1 2/2/2 3/3/3
vt 0.173100 0.264600
f 1/1/1 3/3/3 4/4/4
vt 0.195800 0.214200
f 4/4/4 3/3/3 5/5/5
vt 0.179400 0.265800
f 4/4/4 5/5/5 6/6/6
vt 0.211600 0.220800
f 6/6/6 5/5/5 7/7/7
vt 0.185300 0.268200
f 6/6/6 7/7/7 8/8/8
vt 0.225800 0.230400
f 8/8/8 7/7/7 9/9/9
vt 0.190700 0.271700
f 8/8/8 9/9/9 10/10/10
vt 0.237800 0.242500
f 10/10/10 9/9/9 11/11/11
vt 0.195400 0.276300
f 10/10/10 11/11/11 12/12/12
vt 0.247300 0.256800
f 12/12/12 11/11/11 13/13/13
vt 0.199000 0.281700
f 12/12/12 13/13/13 14/14/14
vt 0.253800 0.272600
f 14/14/14 13/13/13 15/15/15
vt 0.201500 0.287700
f 14/14/14 15/15/15 16/16/16
vt 0.257000 0.289400
f 16/16/16 15/15/15 17/17/17
vt 0.202900 0.294100
f 16/16/16 17/17/17 18/18/18
vt 0.257000 0.306500
f 18/18/18 17/17/17 19/19/19
vt 0.202900 0.300600
f 18/18/18 19/19/19 20/20/20
vt 0.253700 0.323300
f 20/20/20 19/19/19 21/21/21
vt 0.201700 0.307100
f 20/20/20 21/21/21 22/22/22
vt 0.247200 0.339100
f 22/22/22 21/21/21 23/23/23
vt 0.199400 0.313200
f 22/22/22 23/23/23 24/24/24
vt 0.237800 0.353400
f 24/24/24 23/23/23 25/25/25
vt 0.196000 0.318700
f 24/24/24 25/25/25 26/26/26
vt 0.225700 0.365500
f 26/26/26 25/25/25 27/27/27
vt 0.191600 0.323400
f 26/26/26 27/27/27 28/28/28
vt 0.211600 0.375000
f 28/28/28 27/27/27 29/29/29
vt 0.186400 0.327200
f 28/28/28 29/29/29 30/30/30
vt 0.195800 0.381600
f 30/30/30 29/29/29 31/31/31
vt 0.180500 0.329800
f 30/30/30 31/31/31 32/32/32
vt 0.179000 0.385000
f 32/32/32 31/31/31 33/33/33
vt 0.174300 0.331100
f 32/32/32 33/33/33 34/34/34
vt 0.162000 0.385000
f 34/34/34 33/33/33 35/35/35
vt 0.167900 0.331200
f 34/34/34 35/35/35 36/36/36
vt 0.145200 0.381600
f 36/36/36 35/35/35 37/37/37
vt 0.161700 0.330100
f 36/36/36 37/37/37 38/38/38
vt 0.129500 0.375000
f 38/38/38 37/37/37 39/39/39
vt 0.155700 0.327700
f 38/38/38 39/39/39 40/40/40
vt 0.115300 0.365500
f 40/40/40 39/39/39 41/41/41
vt 0.150300 0.324100
f 40/40/40 41/41/41 42/42/42
vt 0.103200 0.353300
f 42/42/42 41/41/41 43/43/43
vt 0.145700 0.319600
f 42/42/42 43/43/43 44/44/44
vt 0.093800 0.339100
f 44/44/44 43/43/43 45/45/45
vt 0.142000 0.314200
f 44/44/44 45/45/45 46/46/46
vt 0.087300 0.323300
f 46/46/46 45/45/45 47/47/47
vt 0.139500 0.308200
f 46/46/46 47/47/47 48/48/48
vt 0.084000 0.306500
f 48/48/48 47/47/47 49/49/49
vt 0.138100 0.301800
f 48/48/48 49/49/49 50/50/50
vt 0.084000 0.289400
f 50/50/50 49/49/49 51/51/51
vt 0.138000 0.295200
f 50/50/50 51/51/51 52/52/52
vt 0.087300 0.272600
f 52/52/52 51/51/51 53/53/53
vt 0.139200 0.288800
f 52/52/52 53/53/53 54/54/54
vt 0.093800 0.256800
f 54/54/54 53/53/53 55/55/55
vt 0.141600 0.282700
f 54/54/54 55/55/55 56/56/56
vt 0.103200 0.242500
f 56/56/56 55/55/55 57/57/57
vt 0.145100 0.277100
f 56/56/56 57/57/57 58/58/58
vt 0.115300 0.230400
f 58/58/58 57/57/57 59/59/59
vt 0.149400 0.272400
f 58/58/58 59/59/59 60/60/60
vt 0.129400 0.220800
f 60/60/60 59/59/59 61/61/61
vt 0.154600 0.268700
f 60/60/60 61/61/61 62/62/62
vt 0.179300 0.423500
vt 0.158200 0.423500
vt 0.137400 0.418600
f 3/63/3 2/64/2 63/65/63
vt 0.117900 0.408800
f 3/63/3 63/65/63 61/66/61
vt 0.100300 0.394600
f 3/63/3 61/66/61 59/67/59
vt 0.085400 0.376500
f 3/63/3 59/67/59 57/68/57
vt 0.073600 0.355200
f 3/63/3 57/68/57 55/69/55
vt 0.065500 0.331600
f 3/63/3 55/69/55 53/70/53
vt 0.061400 0.306500
f 3/63/3 53/70/53 51/71/51
vt 0.061400 0.281000
f 3/63/3 51/71/51 49/72/49
vt 0.065500 0.255900
f 3/63/3 49/72/49 47/73/47
vt 0.073600 0.232300
f 3/63/3 47/73/47 45/74/45
vt 0.085400 0.211000
f 3/63/3 45/74/45 43/75/43
vt 0.100300 0.192900
f 3/63/3 43/75/43 41/76/41
vt 0.117900 0.178700
f 3/63/3 41/76/41 39/77/39
vt 0.137400 0.168900
f 3/63/3 39/77/39 37/78/37
vt 0.158200 0.164000
f 3/63/3 37/78/37 35/79/35
vt 0.179300 0.164000
f 3/63/3 35/79/35 33/80/33
vt 0.200100 0.168900
f 3/63/3 33/80/33 31/81/31
vt 0.219600 0.178700
f 3/63/3 31/81/31 29/82/29
vt 0.237200 0.192900
f 3/63/3 29/82/29 27/83/27
vt 0.252100 0.211000
f 3/63/3 27/83/27 25/84/25
vt 0.263900 0.232300
f 3/63/3 25/84/25 23/85/23
vt 0.272000 0.255900
f 3/63/3 23/85/23 21/86/21
vt 0.276100 0.281000
f 3/63/3 21/86/21 19/87/19
vt 0.276100 0.306500
f 3/63/3 19/87/19 17/88/17
vt 0.272000 0.331600
f 3/63/3 17/88/17 15/89/15
vt 0.263900 0.355200
f 3/63/3 15/89/15 13/90/13
vt 0.252100 0.376500
f 3/63/3 13/90/13 11/91/11
vt 0.237200 0.394600
f 3/63/3 11/91/11 9/92/9
vt 0.219600 0.408800
f 3/63/3 9/92/9 7/93/7
vt 0.200100 0.418600
f 3/63/3 7/93/7 5/94/5
vt 0.145200 0.214200
f 62/62/62 61/61/61 63/95/63
vt 0.160400 0.266100
f 62/62/62 63/95/63 64/96/64
f 64/96/64 63/95/63 2/2/2
f 2/2/2 1/1/1 64/96/64
vt 0.597800 0.495700
vt 0.597800 0.974100
vt 0.574000 0.974100
f 65/97/65 66/98/66 67/99/67
vt 0.574000 0.495700
f 65/97/65 67/99/67 68/100/68
vt 0.550300 0.974100
f 68/100/68 67/99/67 69/101/69
vt 0.550300 0.495700
f 68/100/68 69/101/69 70/102/70
vt 0.526500 0.974100
f 70/102/70 69/101/69 71/103/71
vt 0.526500 0.495700
f 70/102/70 71/103/71 72/104/72
vt 0.502800 0.974100
f 72/104/72 71/103/71 73/105/73
vt 0.502800 0.495700
f 72/104/72 73/105/73 74/106/74
vt 0.479000 0.974100
f 74/106/74 73/105/73 75/107/75
vt 0.479000 0.495700
f 74/106/74 75/107/75 76/108/76
vt 0.455300 0.974100
f 76/108/76 75/107/75 77/109/77
vt 0.455300 0.495700
f 76/108/76 77/109/77 78/110/78
vt 0.399000 0.501800
vt 0.399000 0.977400
vt 0.375500 0.977400
f 78/111/78 77/112/77 79/113/79
vt 0.375500 0.501800
f 78/111/78 79/113/79 80/114/80
vt 0.351900 0.977400
f 80/114/80 79/113/79 81/115/81
vt 0.351900 0.501800
f 80/114/80 81/115/81 82/116/82
vt 0.328400 0.977400
f 82/116/82 81/115/81 83/117/83
vt 0.328400 0.501800
f 82/116/82 83/117/83 84/118/84
vt 0.304800 0.977400
f 84/118/84 83/117/83 85/119/85
vt 0.304800 0.501800
f 84/118/84 85/119/85 86/120/86
vt 0.281200 0.977400
f 86/120/86 85/119/85 87/121/87
vt 0.281200 0.501800
f 86/120/86 87/121/87 88/122/88
vt 0.257700 0.977400
f 88/122/88 87/121/87 89/123/89
vt 0.257700 0.501800
f 88/122/88 89/123/89 90/124/90
vt 0.234100 0.977400
f 90/124/90 89/123/89 91/125/91
vt 0.234100 0.501800
f 90/124/90 91/125/91 92/126/92
vt 0.210600 0.977400
f 92/126/92 91/125/91 93/127/93
vt 0.210600 0.501800
f 92/126/92 93/127/93 94/128/94
vt 0.187000 0.977400
f 94/128/94 93/127/93 95/129/95
vt 0.187000 0.501800
f 94/128/94 95/129/95 96/130/96
vt 0.163400 0.977400
f 96/130/96 95/129/95 97/131/97
vt 0.163400 0.501800
f 96/130/96 97/131/97 98/132/98
vt 0.139900 0.977400
f 98/132/98 97/131/97 99/133/99
vt 0.139900 0.501800
f 98/132/98 99/133/99 100/134/100
vt 0.116300 0.977400
f 100/134/100 99/133/99 101/135/101
vt 0.116300 0.501800
f 100/134/100 101/135/101 102/136/102
vt 0.092800 0.977400
f 102/136/102 101/135/101 103/137/103
vt 0.092800 0.501800
f 102/136/102 103/137/103 104/138/104
vt 0.069200 0.977400
f 104/138/104 103/137/103 105/139/105
vt 0.069200 0.501800
f 104/138/104 105/139/105 106/140/106
vt 0.045600 0.977400
f 106/140/106 105/139/105 107/141/107
vt 0.045600 0.501800
f 106/140/106 107/141/107 108/142/108
vt 0.022100 0.977400
f 108/142/108 107/141/107 109/143/109
vt 0.022100 0.501800
f 108/142/108 109/143/109 110/144/110
vt 0.835400 0.495700
vt 0.835400 0.974100
vt 0.811600 0.974100
f 110/145/110 109/146/109 111/147/111
vt 0.811600 0.495700
f 110/145/110 111/147/111 112/148/112
vt 0.787800 0.974100
f 112/148/112 111/147/111 113/149/113
vt 0.787800 0.495700
f 112/148/112 113/149/113 114/150/114
vt 0.764100 0.974100
f 114/150/114 113/149/113 115/151/115
vt 0.764100 0.495700
f 114/150/114 115/151/115 116/152/116
vt 0.740300 0.974100
f 116/152/116 115/151/115 117/153/117
vt 0.740300 0.495700
f 116/152/116 117/153/117 118/154/118
vt 0.716600 0.974100
f 118/154/118 117/153/117 119/155/119
vt 0.716600 0.495700
f 118/154/118 119/155/119 120/156/120
vt 0.692800 0.974100
f 120/156/120 119/155/119 121/157/121
vt 0.692800 0.495700
f 120/156/120 121/157/121 122/158/122
vt 0.669100 0.974100
f 122/158/122 121/157/121 123/159/123
vt 0.669100 0.495700
f 122/158/122 123/159/123 124/160/124
vt 0.645300 0.974100
f 124/160/124 123/159/123 125/161/125
vt 0.645300 0.495700
f 124/160/124 125/161/125 126/162/126
vt 0.219400 0.347300
vt 0.211500 0.355300
vt 0.202200 0.361500
f 67/163/67 66/164/66 127/165/127
vt 0.191800 0.365800
f 67/163/67 127/165/127 125/166/125
vt 0.180800 0.368000
f 67/163/67 125/166/125 123/167/123
vt 0.169600 0.368000
f 67/163/67 123/167/123 121/168/121
vt 0.158600 0.365800
f 67/163/67 121/168/121 119/169/119
vt 0.148200 0.361500
f 67/163/67 119/169/119 117/170/117
vt 0.138900 0.355300
f 67/163/67 117/170/117 115/171/115
vt 0.130900 0.347300
f 67/163/67 115/171/115 113/172/113
vt 0.124700 0.338000
f 67/163/67 113/172/113 111/173/111
vt 0.120400 0.327600
f 67/163/67 111/173/111 109/174/109
vt 0.118200 0.316600
f 67/163/67 109/174/109 107/175/107
vt 0.118200 0.305400
f 67/163/67 107/175/107 105/176/105
vt 0.120400 0.294400
f 67/163/67 105/176/105 103/177/103
vt 0.124700 0.284000
f 67/163/67 103/177/103 101/178/101
vt 0.130900 0.274700
f 67/163/67 101/178/101 99/179/99
vt 0.138900 0.266800
f 67/163/67 99/179/99 97/180/97
vt 0.148200 0.260500
f 67/163/67 97/180/97 95/181/95
vt 0.158600 0.256200
f 67/163/67 95/181/95 93/182/93
vt 0.169600 0.254000
f 67/163/67 93/182/93 91/183/91
vt 0.180800 0.254000
f 67/163/67 91/183/91 89/184/89
vt 0.191800 0.256200
f 67/163/67 89/184/89 87/185/87
vt 0.202200 0.260500
f 67/163/67 87/185/87 85/186/85
vt 0.211500 0.266800
f 67/163/67 85/186/85 83/187/83
vt 0.219400 0.274700
f 67/163/67 83/187/83 81/188/81
vt 0.225700 0.284000
f 67/163/67 81/188/81 79/189/79
vt 0.230000 0.294400
f 67/163/67 79/189/79 77/190/77
vt 0.232100 0.305400
f 67/163/67 77/190/77 75/191/75
vt 0.232100 0.316600
f 67/163/67 75/191/75 73/192/73
vt 0.230000 0.327600
f 67/163/67 73/192/73 71/193/71
vt 0.225700 0.338000
f 67/163/67 71/193/71 69/194/69
vt 0.621600 0.974100
f 126/162/126 125/161/125 127/195/127
vt 0.621600 0.495700
f 126/162/126 127/195/127 128/196/128
f 128/196/128 127/195/127 66/98/66
f 128/196/128 66/98/66 65/97/65
vt 0.537300 0.175600
vt 0.552800 0.193800
vt 0.564900 0.215100
f 65/197/65 68/198/68 70/199/70
vt 0.573300 0.238800
f 65/197/65 70/199/70 72/200/72
vt 0.577500 0.264000
f 65/197/65 72/200/72 74/201/74
vt 0.577500 0.289700
f 65/197/65 74/201/74 76/202/76
vt 0.573300 0.314900
f 65/197/65 76/202/76 78/203/78
vt 0.564900 0.338700
f 65/197/65 78/203/78 80/204/80
vt 0.552800 0.360000
f 65/197/65 80/204/80 82/205/82
vt 0.537300 0.378200
f 65/197/65 82/205/82 84/206/84
vt 0.519100 0.392500
f 65/197/65 84/206/84 86/207/86
vt 0.498900 0.402300
f 65/197/65 86/207/86 88/208/88
vt 0.477500 0.407300
f 65/197/65 88/208/88 90/209/90
vt 0.455600 0.407300
f 65/197/65 90/209/90 92/210/92
vt 0.434200 0.402300
f 65/197/65 92/210/92 94/211/94
vt 0.413900 0.392500
f 65/197/65 94/211/94 96/212/96
vt 0.395800 0.378200
f 65/197/65 96/212/96 98/213/98
vt 0.380300 0.360000
f 65/197/65 98/213/98 100/214/100
vt 0.368200 0.338700
f 65/197/65 100/214/100 102/215/102
vt 0.359800 0.314900
f 65/197/65 102/215/102 104/216/104
vt 0.355500 0.289700
f 65/197/65 104/216/104 106/217/106
vt 0.355500 0.264000
f 65/197/65 106/217/106 108/218/108
vt 0.359800 0.238800
f 65/197/65 108/218/108 110/219/110
vt 0.368200 0.215100
f 65/197/65 110/219/110 112/220/112
vt 0.380300 0.193800
f 65/197/65 112/220/112 114/221/114
vt 0.395800 0.175600
f 65/197/65 114/221/114 116/222/116
vt 0.413900 0.161300
f 65/197/65 116/222/116 118/223/118
vt 0.434200 0.151500
f 65/197/65 118/223/118 120/224/120
vt 0.455600 0.146500
f 65/197/65 120/224/120 122/225/122
vt 0.477500 0.146500
f 65/197/65 122/225/122 124/226/124
vt 0.498900 0.151500
f 65/197/65 124/226/124 126/227/126
vt 0.519100 0.161300
f 65/197/65 126/227/126 128/228/128
vt 0.000000 0.000000
f 1/229/1 4/229/4 6/229/6
f 1/229/1 6/229/6 8/229/8
f 1/229/1 8/229/8 10/229/10
f 1/229/1 10/229/10 12/229/12
f 1/229/1 12/229/12 14/229/14
f 1/229/1 14/229/14 16/229/16
f 1/229/1 16/229/16 18/229/18
f 1/229/1 18/229/18 20/229/20
f 1/229/1 20/229/20 22/229/22
f 1/229/1 22/229/22 24/229/24
f 1/229/1 24/229/24 26/229/26
f 1/229/1 26/229/26 28/229/28
f 1/229/1 28/229/28 30/229/30
f 1/229/1 30/229/30 32/229/32
f 1/229/1 32/229/32 34/229/34
f 1/229/1 34/229/34 36/229/36
f 1/229/1 36/229/36 38/229/38
f 1/229/1 38/229/38 40/229/40
f 1/229/1 40/229/40 42/229/42
f 1/229/1 42/229/42 44/229/44
f 1/229/1 44/229/44 46/229/46
f 1/229/1 46/229/46 48/229/48
f 1/229/1 48/229/48 50/229/50
f 1/229/1 50/229/50 52/229/52
f 1/229/1 52/229/52 54/229/54
f 1/229/1 54/229/54 56/229/56
f 1/229/1 56/229/56 58/229/58
f 1/229/1 58/229/58 60/229/60
f 1/229/1 60/229/60 62/229/62
f 1/229/1 62/229/62 64/229/64
# 248 faces, 229 coords texture

# End of File