####
#
# OBJ File Generated by Meshlab
#
####
# Object soft_white_lightbulb.obj
#
# Vertices: 8
# Faces: 12
#
####
mtllib ./soft_white_lightbulb.obj.mtl

vn -1.570796 1.570796 1.570796
v -0.031000 0.060000 0.032000 0.749020 0.749020 0.749020
vn -1.570796 1.570796 -1.570796
v -0.031000 0.060000 -0.032000 0.749020 0.749020 0.749020
vn -1.570796 -1.570796 -1.570796
v -0.031000 -0.060000 -0.032000 0.749020 0.749020 0.749020
vn -1.570796 -1.570796 1.570796
v -0.031000 -0.060000 0.032000 0.749020 0.749020 0.749020
vn 1.570796 1.570796 -1.570796
v 0.031000 0.060000 -0.032000 0.749020 0.749020 0.749020
vn 1.570796 -1.570796 -1.570796
v 0.031000 -0.060000 -0.032000 0.749020 0.749020 0.749020
vn 1.570796 1.570796 1.570796
v 0.031000 0.060000 0.032000 0.749020 0.749020 0.749020
vn 1.570796 -1.570796 1.570796
v 0.031000 -0.060000 0.032000 0.749020 0.749020 0.749020
# 8 vertices, 0 vertices normals


usemtl material_0
vt 0.004887 0.859146
vt 0.001111 0.598913
vt 0.496076 0.598816
f 1/1/1 2/2/2 3/3/3
vt 0.490541 0.861803
f 1/1/1 3/3/3 4/4/4
vt 0.501878 0.856686
vt 0.498422 0.604551
vt 0.998717 0.598816
f 2/5/2 5/6/5 6/7/6
vt 0.995378 0.860780
f 2/5/2 6/7/6 3/8/3
vt 0.512960 0.544289
vt 0.512047 0.294237
vt 0.990198 0.294047
f 5/9/5 7/10/7 8/11/8
vt 0.985460 0.550979
f 5/9/5 8/11/8 6/12/6
vt 0.001111 0.591664
vt 0.002788 0.332054
vt 0.509770 0.332583
f 7/13/7 1/14/1 4/15/4
vt 0.507948 0.596518
f 7/13/7 4/15/4 8/16/8
vt 0.001111 0.005308
vt 0.329903 0.001111
vt 0.338876 0.313538
f 4/17/4 3/18/3 6/19/6
vt 0.011798 0.329827
f 4/17/4 6/19/6 8/20/8
vt 0.614704 0.001111
vt 0.622705 0.275028
vt 0.359329 0.291551
f 7/21/7 5/22/5 2/23/2
vt 0.341376 0.011204
f 2/23/2 1/24/1 7/21/7
# 12 faces, 24 coords texture

# End of File
