####
#
# OBJ File Generated by Meshlab
#
####
# Object laugh_out_loud_joke_book.obj
#
# Vertices: 12
# Faces: 12
#
####
mtllib ./laugh_out_loud_joke_book.obj.mtl

vn -1.570796 -1.570796 0.000000
v -0.005000 -0.089000 0.054000 0.752941 0.752941 0.752941
vn -1.570796 -1.570796 -1.570796
v -0.005000 -0.089000 -0.054000 0.752941 0.752941 0.752941
vn 1.570796 -1.570796 -1.570796
v 0.005000 -0.089000 -0.054000 0.752941 0.752941 0.752941
vn 1.570796 -1.570796 0.000000
v 0.005000 -0.089000 0.054000 0.752941 0.752941 0.752941
vn -1.570796 1.570796 0.000000
v -0.005000 0.089000 0.054000 0.752941 0.752941 0.752941
vn -1.570796 1.570796 -1.570796
v -0.005000 0.089000 -0.054000 0.752941 0.752941 0.752941
vn 1.570796 1.570796 -1.570796
v 0.005000 0.089000 -0.054000 0.752941 0.752941 0.752941
vn 1.570796 1.570796 0.000000
v 0.005000 0.089000 0.054000 0.752941 0.752941 0.752941
vn 0.000000 0.000000 1.570796
v -0.005000 -0.089000 0.054000 0.752941 0.752941 0.752941
vn 0.000000 0.000000 1.570796
v 0.005000 -0.089000 0.054000 0.752941 0.752941 0.752941
vn 0.000000 0.000000 1.570796
v -0.005000 0.089000 0.054000 0.752941 0.752941 0.752941
vn 0.000000 0.000000 1.570796
v 0.005000 0.089000 0.054000 0.752941 0.752941 0.752941
# 12 vertices, 0 vertices normals


usemtl material_0
vt 0.887294 0.967745
vt 0.438108 0.967422
vt 0.438490 0.191201
f 5/1/5 6/2/6 2/3/2
vt 0.887676 0.191523
f 5/1/5 2/3/2 1/4/1
vt 0.761008 0.023468
vt 0.761669 0.050794
vt 0.117761 0.078489
f 6/5/6 7/6/7 3/7/3
vt 0.117100 0.051163
f 6/5/6 3/7/3 2/8/2
vt 0.413138 0.973623
vt 0.020288 0.967987
vt 0.026026 0.181598
f 7/9/7 8/10/8 4/11/4
vt 0.418876 0.187233
f 7/9/7 4/11/4 3/12/3
vt 0.040445 0.141260
vt 0.040196 0.108535
vt 0.812992 0.098781
f 12/13/12 11/14/11 9/15/9
vt 0.813240 0.131506
f 12/13/12 9/15/9 10/16/10
vt 0.929893 0.882110
vt 0.929893 0.238718
vt 0.956726 0.238718
f 1/17/1 2/18/2 3/19/3
vt 0.956726 0.882110
f 1/17/1 3/19/3 4/20/4
vt 0.933573 0.900806
vt 0.933573 0.201147
vt 0.957517 0.201147
f 8/21/8 7/22/7 6/23/6
vt 0.957517 0.900806
f 8/21/8 6/23/6 5/24/5
# 12 faces, 24 coords texture

# End of File
