####
#
# OBJ File Generated by Meshlab
#
####
# Object dove_beauty_bar.obj
#
# Vertices: 8
# Faces: 12
#
####
mtllib ./dove_beauty_bar.obj.mtl

vn -1.570796 1.570796 1.570796
v -0.018500 0.032500 0.045500 0.749020 0.749020 0.749020
vn -1.570796 1.570796 -1.570796
v -0.018500 0.032500 -0.045500 0.749020 0.749020 0.749020
vn -1.570796 -1.570796 1.570796
v -0.018500 -0.032500 0.045500 0.749020 0.749020 0.749020
vn 1.570796 1.570796 -1.570796
v 0.018500 0.032500 -0.045500 0.749020 0.749020 0.749020
vn -1.570796 -1.570796 -1.570796
v -0.018500 -0.032500 -0.045500 0.749020 0.749020 0.749020
vn 1.570796 1.570796 1.570796
v 0.018500 0.032500 0.045500 0.749020 0.749020 0.749020
vn 1.570796 -1.570796 -1.570796
v 0.018500 -0.032500 -0.045500 0.749020 0.749020 0.749020
vn 1.570796 -1.570796 1.570796
v 0.018500 -0.032500 0.045500 0.749020 0.749020 0.749020
# 8 vertices, 0 vertices normals


usemtl material_0
vt 0.418944 0.633150
vt 0.767321 0.633150
vt 0.418944 0.974765
f 1/1/1 2/2/2 3/3/3
vt 0.365520 0.301109
vt 0.365831 0.564096
vt 0.021741 0.301794
f 2/4/2 4/5/4 5/6/5
vt 0.392659 0.975438
vt 0.012459 0.975438
vt 0.392659 0.618399
f 4/7/4 6/8/6 7/9/7
vt 0.781962 0.319795
vt 0.781962 0.546094
vt 0.413999 0.319795
f 6/10/6 1/11/1 8/12/8
vt 0.157157 0.042710
vt 0.614669 0.042710
vt 0.157158 0.247913
f 3/13/3 5/14/5 8/15/8
vt 0.617420 0.264648
vt 0.159063 0.264648
vt 0.617420 0.025976
f 2/16/2 1/17/1 4/18/4
vt 0.767321 0.974765
f 2/2/2 5/19/5 3/3/3
vt 0.022052 0.564781
f 4/5/4 7/20/7 5/6/5
vt 0.012459 0.618399
f 6/8/6 8/21/8 7/9/7
vt 0.413999 0.546094
f 1/11/1 3/22/3 8/12/8
vt 0.614669 0.247913
f 5/14/5 7/23/7 8/15/8
vt 0.159063 0.025975
f 1/17/1 6/24/6 4/18/4
# 12 faces, 24 coords texture

# End of File
